<svg width="100" height="66" viewBox="0 0 100 66" fill="none" xmlns="http://www.w3.org/2000/svg">
<path d="M81.1132 23.286C78.97 16.5657 74.7572 10.6949 69.0769 6.51284C63.3966 2.33074 56.5397 0.0513715 49.4861 0.000539743C43.5225 -0.0336569 37.6623 1.5577 32.5352 4.60364C27.408 7.64957 23.2077 12.035 20.3855 17.2886C15.1986 18.2181 10.4438 20.7788 6.81302 24.5978C3.18224 28.4169 0.865056 33.295 0.198717 38.5222C-0.467622 43.7494 0.551666 49.0529 3.10823 53.6606C5.66478 58.2684 9.62518 61.9401 14.413 64.1411L15.0343 64.4228H15.0757V57.3816C11.7912 55.3655 9.21997 52.3721 7.72227 48.8212C6.22458 45.2702 5.87551 41.3396 6.724 37.5803C7.5725 33.821 9.57602 30.4214 12.4538 27.858C15.3315 25.2946 18.9392 23.6959 22.7712 23.286L24.5108 23.1037L25.2729 21.5381C27.4367 16.9523 30.8648 13.0796 35.154 10.3751C39.4433 7.67068 44.4155 6.24695 49.4861 6.27129C55.528 6.31392 61.3823 8.37536 66.1179 12.1278C70.8534 15.8803 74.1985 21.1083 75.6211 26.9805L76.2175 29.3496H78.7027C82.7088 29.4318 86.524 31.0772 89.3333 33.9345C92.1426 36.7918 93.7232 40.6343 93.7375 44.6413C93.7375 50.4813 90.3661 55.261 84.6255 57.6798V64.3565L85.0397 64.2239C94.2677 61.2004 100 53.6954 100 44.6413C99.962 39.4009 98.0285 34.3514 94.5567 30.4259C91.085 26.5004 86.3096 23.9642 81.1132 23.286Z" fill="#3448C5"/>
<path d="M37.3417 63.6112L38.7168 64.9863C38.7539 65.0245 38.7791 65.0727 38.7892 65.125C38.7993 65.1774 38.7939 65.2315 38.7737 65.2808C38.7534 65.33 38.7192 65.3723 38.6753 65.4024C38.6313 65.4325 38.5795 65.4492 38.5262 65.4502H27.6746C26.3564 65.4502 25.0922 64.9266 24.1602 63.9945C23.2281 63.0624 22.7044 61.7982 22.7044 60.48V39.4063C22.7044 39.3338 22.6756 39.2643 22.6243 39.213C22.5731 39.1617 22.5036 39.133 22.4311 39.133H20.1116C20.0576 39.1335 20.0047 39.1181 19.9595 39.0886C19.9143 39.0591 19.8788 39.0169 19.8576 38.9673C19.8363 38.9177 19.8302 38.8629 19.84 38.8098C19.8499 38.7567 19.8752 38.7078 19.9128 38.6691L29.1243 29.4576C29.1497 29.4318 29.18 29.4113 29.2134 29.3973C29.2468 29.3834 29.2827 29.3762 29.3189 29.3762C29.3552 29.3762 29.391 29.3834 29.4244 29.3973C29.4579 29.4113 29.4882 29.4318 29.5136 29.4576L38.7168 38.6691C38.7539 38.7073 38.7791 38.7555 38.7892 38.8078C38.7993 38.8601 38.7939 38.9142 38.7737 38.9635C38.7534 39.0128 38.7192 39.0551 38.6753 39.0852C38.6313 39.1153 38.5795 39.1319 38.5262 39.133H36.1737C36.1004 39.1329 36.03 39.1615 35.9774 39.2125C35.9248 39.2635 35.8942 39.3331 35.892 39.4063V60.1155C35.8954 61.4263 36.4164 62.6827 37.3417 63.6112ZM57.6947 63.6112L59.0781 64.9863C59.1157 65.025 59.141 65.074 59.1508 65.1271C59.1607 65.1801 59.1546 65.2349 59.1333 65.2845C59.1121 65.3342 59.0766 65.3764 59.0314 65.4058C58.9862 65.4353 58.9332 65.4508 58.8793 65.4502H48.0525C46.7343 65.4502 45.4701 64.9266 44.538 63.9945C43.6059 63.0624 43.0823 61.7982 43.0823 60.48V44.7327C43.0823 44.6594 43.0538 44.589 43.0027 44.5364C42.9517 44.4839 42.8822 44.4532 42.8089 44.4511H40.4646C40.4114 44.45 40.3596 44.4334 40.3156 44.4033C40.2717 44.3732 40.2375 44.3309 40.2172 44.2816C40.197 44.2323 40.1916 44.1782 40.2017 44.1259C40.2118 44.0736 40.237 44.0254 40.2741 43.9872L49.4773 34.7923C49.5027 34.7665 49.533 34.746 49.5664 34.732C49.5999 34.7181 49.6357 34.7109 49.6719 34.7109C49.7082 34.7109 49.744 34.7181 49.7775 34.732C49.8109 34.746 49.8412 34.7665 49.8666 34.7923L59.0781 43.9706C59.1157 44.0093 59.141 44.0583 59.1508 44.1114C59.1607 44.1644 59.1546 44.2192 59.1333 44.2688C59.1121 44.3185 59.0766 44.3607 59.0314 44.3901C58.9862 44.4196 58.9332 44.4351 58.8793 44.4345H56.5267C56.4534 44.4367 56.3839 44.4673 56.3329 44.5199C56.2818 44.5725 56.2533 44.6429 56.2533 44.7162V60.1155C56.2545 61.4251 56.7724 62.6814 57.6947 63.6112ZM78.056 63.6112L79.4311 64.9863C79.4682 65.0245 79.4934 65.0727 79.5035 65.125C79.5136 65.1774 79.5082 65.2315 79.488 65.2808C79.4677 65.33 79.4335 65.3723 79.3896 65.4024C79.3456 65.4325 79.2938 65.4492 79.2406 65.4502H68.3806C67.0625 65.4502 65.7983 64.9266 64.8662 63.9945C63.9341 63.0624 63.4104 61.7982 63.4104 60.48V50.0177C63.4104 49.9452 63.3816 49.8757 63.3304 49.8244C63.2791 49.7731 63.2096 49.7443 63.1371 49.7443H60.8176C60.7627 49.7449 60.7088 49.7289 60.663 49.6984C60.6173 49.6679 60.5818 49.6243 60.5612 49.5733C60.5406 49.5223 60.5359 49.4663 60.5477 49.4126C60.5594 49.3588 60.5871 49.3099 60.6271 49.2722L69.8386 40.069C69.8633 40.0435 69.8929 40.0231 69.9256 40.0093C69.9584 39.9954 69.9935 39.9882 70.0291 39.9882C70.0646 39.9882 70.0998 39.9954 70.1326 40.0093C70.1653 40.0231 70.1949 40.0435 70.2196 40.069L79.4311 49.2722C79.4711 49.3099 79.4988 49.3588 79.5105 49.4126C79.5223 49.4663 79.5176 49.5223 79.497 49.5733C79.4764 49.6243 79.4409 49.6679 79.3952 49.6984C79.3494 49.7289 79.2955 49.7449 79.2406 49.7443H76.8797C76.8072 49.7443 76.7377 49.7731 76.6864 49.8244C76.6351 49.8757 76.6063 49.9452 76.6063 50.0177V60.1155C76.6097 61.4263 77.1307 62.6827 78.056 63.6112Z" fill="#3448C5"/>
</svg>
